PathFileType	4	(X/Y/Z)	/Users/itak/Documents/Research/Walk-IL/dataset/trc/00350_00011.trc
DataRate	CameraRate	NumFrames	NumMarkers	Units	OrigDataRate	OrigDataStartFrame	OrigNumFrames
100.000000	100.000000	4	53	mm	100.000000	456	730
Frame#	Time	RPSI			LPSI			STRN			T10			C7			CLAV			RBAK			LBAK			LSHO			LUPA			LAEL			LAOL			LWTS			LWPS			LFRA			LIFD			LHPS			LHTS			RSHO			RUPA			RAEL			RAOL			RWTS			RWPS			RFRA			RIFD			RHTS			RHPS			RBHD			LFHD			RFHD			LBHD			LHIP			RHIP			RASI			LASI			LKNE			LTHI			LANK			LTIP			LTOE			LMT1			LMT5			LHEE			RKNE			RANK			RTIP			RTOE			RMT1			RMT5			RHEE			L3			RTHI			
		X1	Y1	Z1	X2	Y2	Z2	X3	Y3	Z3	X4	Y4	Z4	X5	Y5	Z5	X6	Y6	Z6	X7	Y7	Z7	X8	Y8	Z8	X9	Y9	Z9	X10	Y10	Z10	X11	Y11	Z11	X12	Y12	Z12	X13	Y13	Z13	X14	Y14	Z14	X15	Y15	Z15	X16	Y16	Z16	X17	Y17	Z17	X18	Y18	Z18	X19	Y19	Z19	X20	Y20	Z20	X21	Y21	Z21	X22	Y22	Z22	X23	Y23	Z23	X24	Y24	Z24	X25	Y25	Z25	X26	Y26	Z26	X27	Y27	Z27	X28	Y28	Z28	X29	Y29	Z29	X30	Y30	Z30	X31	Y31	Z31	X32	Y32	Z32	X33	Y33	Z33	X34	Y34	Z34	X35	Y35	Z35	X36	Y36	Z36	X37	Y37	Z37	X38	Y38	Z38	X39	Y39	Z39	X40	Y40	Z40	X41	Y41	Z41	X42	Y42	Z42	X43	Y43	Z43	X44	Y44	Z44	X45	Y45	Z45	X46	Y46	Z46	X47	Y47	Z47	X48	Y48	Z48	X49	Y49	Z49	X50	Y50	Z50	X51	Y51	Z51	X52	Y52	Z52	X53	Y53	Z53	

457	4.56	637.1303100585938	941.7353515625	168.1969757080078	764.8389892578125	953.7357177734375	192.2844848632812	672.1731567382812	1191.705200195312	408.1334838867188	708.6538696289062	1128.361083984375	166.9283294677734	727.9935302734375	1374.74609375	218.7145843505859	689.3974609375	1316.642333984375	367.8042297363281	663.0958251953125	1241.42626953125	151.6840209960938	825.9762573242188	1331.463745117188	226.8808288574219	865.915283203125	1346.66796875	320.0367126464844	938	1230.58447265625	308.7974548339844	970.4412841796875	1029.738403320312	312.9852600097656	915.6438598632812	1012.696899414062	252.7072448730469	963.3670654296875	783.9513549804688	405.0900268554688	1012.77978515625	779.4906616210938	356.4903869628906	990.7506713867188	926.2802124023438	322.954345703125	973.857666015625	623.1041259765625	399.7560119628906	1014.091125488281	709.6715087890625	351.0362854003906	988.4246826171875	706.6500854492188	410.842529296875	557.2889404296875	1371.028930664062	240.7629852294922	495.0606994628906	1312.6083984375	209.8848114013672	453.5497436523438	1053.874389648438	157.1515197753906	548.1100463867188	1042.017700195312	150.9572906494141	430.8845520019531	814.809814453125	244.46630859375	389.3493957519531	812.4259643554688	178.5128479003906	430.4756164550781	986.1053466796875	164.8553314208984	400.8117980957031	645.5165405273438	220.3539886474609	391.3522338867188	714.9714965820312	245.4808807373047	373.0777893066406	730.3333129882812	179.0806579589844	638.87060546875	1585.568115234375	264.5732116699219	689.0111083984375	1564.11083984375	467.131103515625	598.0686645507812	1564.089111328125	420.7429809570312	778.2293090820312	1586.349487304688	304.0337219238281	853.5259399414062	907.8134155273438	299.8572082519531	511.1632385253906	882.968994140625	232.0409851074219	538.2501220703125	910.348876953125	337.1410217285156	767.341064453125	928.4893188476562	404.0154418945312	837.7724609375	461.5144348144531	454.0273742675781	848.89892578125	599.4425048828125	419.1137390136719	881.5118408203125	40.69707107543945	369.5947570800781	868.0114135742188	242.3255310058594	425.2776794433594	783.92529296875	34.40628433227539	563.9486083984375	754.68896484375	22.89092254638672	487.8033447265625	869.1867065429688	33.73759460449219	495.65380859375	820.1744995117188	32.17354965209961	326.3908996582031	559.0293579101562	424.3543090820312	300.4130859375	613.7330932617188	194.3426666259766	-44.05483245849609	578.3585205078125	331.0094299316406	226.6787109375	686.437744140625	26.75849533081055	18.77665901184082	716.0804443359375	77.24864959716797	-9.163751602172852	601.1005859375	94.57708740234375	-16.49263954162598	653.9779663085938	243.8102569580078	-66.30227661132812	696.2114868164062	1008.246215820312	174.5463256835938	520.8294677734375	668.4851684570312	312.1026306152344	
458	4.57	640.4663696289062	942.227783203125	174.6645355224609	767.6045532226562	954.8125	201.3073120117188	670.4232177734375	1192.8330078125	415.6881408691406	712.5344848632812	1129.722290039062	175.8484954833984	730.8916625976562	1376.128295898438	227.8944396972656	688.792236328125	1317.774536132812	375.9297180175781	667.4560546875	1242.954833984375	159.4020843505859	828.6906127929688	1332.703735351562	238.2810211181641	866.3721313476562	1347.709716796875	332.4541015625	938.7498168945312	1231.585693359375	323.3168029785156	971.4561157226562	1030.732299804688	329.7730407714844	918.57666015625	1013.475280761719	267.5848999023438	961.0957641601562	785.294189453125	422.3011474609375	1012.125671386719	780.6378784179688	375.6127319335938	991.241455078125	927.295166015625	340.7154541015625	971.5408325195312	624.428466796875	417.8558654785156	1013.62548828125	710.7928466796875	370.3872375488281	985.7562255859375	707.9649658203125	429.1341857910156	559.7567138671875	1372.577880859375	246.1255798339844	498.2375183105469	1314.327758789062	213.6009979248047	457.5848999023438	1055.986938476562	158.5130004882812	552.1635131835938	1043.810546875	155.6070098876953	429.7844848632812	816.2395629882812	242.4315948486328	391.6707153320312	814.7643432617188	174.2339477539062	433.9786071777344	988.3611450195312	164.793212890625	400.0936584472656	647.388916015625	214.783447265625	389.4137878417969	716.6235961914062	240.186767578125	375.0208129882812	732.7969970703125	173.0271148681641	640.9307861328125	1586.952026367188	272.5604553222656	688.0831298828125	1565.281982421875	475.7895202636719	597.7525634765625	1565.492553710938	428.0630187988281	779.6356811523438	1587.329467773438	313.9275207519531	854.5805053710938	908.7279052734375	310.244873046875	517.5850219726562	881.4133911132812	233.8768920898438	538.53564453125	911.9065551757812	342.2186279296875	766.8363037109375	929.2356567382812	413.0258178710938	838.0352783203125	460.3797302246094	457.3388977050781	849.5648803710938	598.8193359375	424.1778564453125	881.3848266601562	40.77305603027344	369.6455993652344	868.3419189453125	241.9489288330078	426.8619384765625	783.841796875	34.40616607666016	563.9241333007812	754.622802734375	22.90715599060059	487.75390625	869.0955810546875	33.71605682373047	495.6832275390625	820.0904541015625	32.3370361328125	326.4315490722656	558.0519409179688	427.3391418457031	316.6196899414062	620.1115112304688	202.8307037353516	-29.03708648681641	579.0172119140625	334.4101867675781	243.2922515869141	684.3765869140625	27.74369049072266	31.16888046264648	717.2550048828125	80.20745849609375	6.657825469970703	603.6278076171875	102.6487350463867	-5.07294750213623	663.1719360351562	251.3946533203125	-48.49627685546875	700.12109375	1009.761535644531	181.9412994384766	521.01708984375	670.4089965820312	320.9903564453125	
459	4.58	643.6791381835938	942.7646484375	181.0757141113281	770.2321166992188	955.8204956054688	210.1265869140625	668.5000610351562	1193.930297851562	423.0131225585938	716.3289794921875	1131.115234375	184.4728088378906	733.5914916992188	1377.50634765625	236.9854278564453	687.99169921875	1318.879638671875	383.8894348144531	671.69287109375	1244.457763671875	167.0374908447266	831.1656494140625	1333.971313476562	249.5871734619141	866.5309448242188	1348.763671875	344.7337036132812	939.145263671875	1232.61669921875	337.6908569335938	972.101318359375	1031.766235351562	346.5968627929688	921.22998046875	1014.230712890625	282.5262451171875	958.4058227539062	786.7289428710938	439.5105895996094	1011.049194335938	781.9310302734375	394.874755859375	991.3406982421875	928.4005126953125	358.5473937988281	969.1273803710938	625.9605102539062	436.2736511230469	1012.877685546875	712.0963745117188	389.9566040039062	982.8209228515625	709.4986572265625	447.5592651367188	562.1294555664062	1374.081665039062	251.3567810058594	501.3439025878906	1316.04345703125	217.201171875	461.3661804199219	1058.177978515625	159.7167205810547	555.8263549804688	1045.641235351562	159.7989654541016	429.1346130371094	817.89794921875	240.4414367675781	394.100341796875	817.1478271484375	170.4807281494141	437.317138671875	990.6815795898438	164.6956329345703	400.1725463867188	649.4242553710938	209.9909973144531	388.2857360839844	718.4938354492188	235.4723510742188	377.3273620605469	735.2412719726562	167.8261108398438	642.78515625	1588.334228515625	280.5104370117188	686.9099731445312	1566.365600585938	484.3211975097656	597.2354125976562	1566.832763671875	435.3002014160156	780.8037719726562	1588.281005859375	323.7619018554688	855.5067749023438	909.4661254882812	320.3217468261719	522.6040649414062	880.7296752929688	236.7581176757812	538.8394165039062	913.5205688476562	347.2428894042969	766.3438720703125	929.9688720703125	421.7855834960938	838.3167114257812	459.406005859375	460.5970458984375	849.9707641601562	598.2315673828125	429.0069885253906	881.2605590820312	40.85250854492188	369.7294311523438	868.5721435546875	241.5778350830078	428.4725341796875	783.7753295898438	34.39347076416016	563.9159545898438	754.570068359375	22.91623878479004	487.7162170410156	869.0093383789062	33.69387054443359	495.7226257324219	820.0232543945312	32.49876403808594	326.4674072265625	556.8842163085938	430.5059204101562	332.4774780273438	626.61669921875	210.1178741455078	-13.36904621124268	579.4868774414062	337.7772827148438	259.7784423828125	682.6415405273438	29.65008163452148	45.82733535766602	718.6336669921875	82.87472534179688	23.95916748046875	606.466064453125	110.0412826538086	8.056781768798828	672.2554321289062	257.6306762695312	-30.35404205322266	703.9461669921875	1011.269592285156	189.2204895019531	521.010986328125	672.4891967773438	329.6578674316406	
460	4.59	646.719970703125	943.3624877929688	187.4597625732422	772.6935424804688	956.7643432617188	218.7348175048828	666.486083984375	1194.998413085938	430.1607971191406	720.0172119140625	1132.523193359375	192.8335113525391	736.1011962890625	1378.86669921875	245.9819641113281	687.0310668945312	1319.954345703125	391.6824035644531	675.793212890625	1245.92138671875	174.6002197265625	833.4093017578125	1335.25341796875	260.7892761230469	866.4260864257812	1349.834106445312	356.8409729003906	939.2188110351562	1233.6767578125	351.8869934082031	972.3583374023438	1032.841430664062	363.4087524414062	923.5853881835938	1014.986511230469	297.4920349121094	955.3047485351562	788.2505493164062	456.6875305175781	1009.549621582031	783.3702392578125	414.2322387695312	991.037841796875	929.5983276367188	376.4109802246094	966.5896606445312	627.6963500976562	454.9837036132812	1011.822204589844	713.5836181640625	409.6973266601562	979.6162719726562	711.2330322265625	466.0892639160156	564.4100952148438	1375.529907226562	256.4879150390625	504.3834838867188	1317.748779296875	220.7269897460938	464.9276733398438	1060.438232421875	160.7848510742188	559.182861328125	1047.492797851562	163.5627136230469	428.90576171875	819.7455444335938	238.5531616210938	396.569091796875	819.5393676757812	167.2682189941406	440.5049743652344	993.0510864257812	164.5618438720703	400.9568176269531	651.5554809570312	206.0116271972656	387.9303283691406	720.5059204101562	231.4087524414062	379.8747253417969	737.619384765625	163.4857940673828	644.4234619140625	1589.69482421875	288.3951110839844	685.4803466796875	1567.357055664062	492.7048645019531	596.5084228515625	1568.09765625	442.4329833984375	781.7314453125	1589.200927734375	333.530029296875	856.3106079101562	910.0655517578125	330.0615539550781	526.355224609375	880.8187255859375	240.5692138671875	539.2064819335938	915.1909790039062	352.2478637695312	765.8740844726562	930.7066650390625	430.2996520996094	838.6112060546875	458.6205139160156	463.8565673828125	850.114990234375	597.7532958984375	433.7239685058594	881.1397705078125	40.94213485717773	369.8430480957031	868.7039794921875	241.2199401855469	430.1147766113281	783.7232666015625	34.36945343017578	563.9219360351562	754.5269165039062	22.91717147827148	487.6891784667969	868.9266357421875	33.6733283996582	495.7692565917969	819.9703979492188	32.65968322753906	326.4986267089844	555.5096435546875	433.7749633789062	347.9416809082031	633.1060791015625	216.0414886474609	2.92612099647522	579.7103271484375	341.0755004882812	276.0729064941406	681.6697998046875	32.21483993530273	62.77362823486328	720.4381713867188	85.31749725341797	42.64993286132812	609.7108764648438	116.421257019043	22.89567375183105	680.9727783203125	262.4751586914062	-11.99031448364258	707.6520385742188	1012.763000488281	196.4183197021484	520.777587890625	674.7178955078125	338.1256713867188	
